<?xml version="1.0" encoding="UTF-8" standalone="no"?>
<svg
   xmlns:dc="http://purl.org/dc/elements/1.1/"
   xmlns:cc="http://creativecommons.org/ns#"
   xmlns:rdf="http://www.w3.org/1999/02/22-rdf-syntax-ns#"
   xmlns:svg="http://www.w3.org/2000/svg"
   xmlns="http://www.w3.org/2000/svg"
   xmlns:sodipodi="http://sodipodi.sourceforge.net/DTD/sodipodi-0.dtd"
   xmlns:inkscape="http://www.inkscape.org/namespaces/inkscape"
   viewBox="0 0 640 640"
   version="1.1"
   id="svg4"
   sodipodi:docname="copy.svg"
   inkscape:version="1.0 (4035a4fb49, 2020-05-01)">
  <metadata
     id="metadata10">
    <rdf:RDF>
      <cc:Work
         rdf:about="">
        <dc:format>image/svg+xml</dc:format>
        <dc:type
           rdf:resource="http://purl.org/dc/dcmitype/StillImage" />
      </cc:Work>
    </rdf:RDF>
  </metadata>
  <defs
     id="defs8" />
  <sodipodi:namedview
     inkscape:document-rotation="0"
     pagecolor="#ffffff"
     bordercolor="#666666"
     borderopacity="1"
     objecttolerance="10"
     gridtolerance="10"
     guidetolerance="10"
     inkscape:pageopacity="0"
     inkscape:pageshadow="2"
     inkscape:window-width="1600"
     inkscape:window-height="837"
     id="namedview6"
     showgrid="false"
     inkscape:zoom="1.046875"
     inkscape:cx="320"
     inkscape:cy="320"
     inkscape:window-x="-8"
     inkscape:window-y="-8"
     inkscape:window-maximized="1"
     inkscape:current-layer="svg4" />
  <!--!Font Awesome Free 7.1.0 by @fontawesome - https://fontawesome.com License - https://fontawesome.com/license/free Copyright 2026 Fonticons, Inc.-->
  <path
     d="M480 400L288 400C279.2 400 272 392.8 272 384L272 128C272 119.2 279.2 112 288 112L421.5 112C425.7 112 429.8 113.7 432.8 116.7L491.3 175.2C494.3 178.2 496 182.3 496 186.5L496 384C496 392.8 488.8 400 480 400zM288 448L480 448C515.3 448 544 419.3 544 384L544 186.5C544 169.5 537.3 153.2 525.3 141.2L466.7 82.7C454.7 70.7 438.5 64 421.5 64L288 64C252.7 64 224 92.7 224 128L224 384C224 419.3 252.7 448 288 448zM160 192C124.7 192 96 220.7 96 256L96 512C96 547.3 124.7 576 160 576L352 576C387.3 576 416 547.3 416 512L416 496L368 496L368 512C368 520.8 360.8 528 352 528L160 528C151.2 528 144 520.8 144 512L144 256C144 247.2 151.2 240 160 240L176 240L176 192L160 192z"
     id="path2"
     style="fill:#000000" />
</svg>
