<?xml version="1.0" encoding="UTF-8" standalone="no"?>
<svg
   xmlns:dc="http://purl.org/dc/elements/1.1/"
   xmlns:cc="http://creativecommons.org/ns#"
   xmlns:rdf="http://www.w3.org/1999/02/22-rdf-syntax-ns#"
   xmlns:svg="http://www.w3.org/2000/svg"
   xmlns="http://www.w3.org/2000/svg"
   xmlns:sodipodi="http://sodipodi.sourceforge.net/DTD/sodipodi-0.dtd"
   xmlns:inkscape="http://www.inkscape.org/namespaces/inkscape"
   inkscape:version="1.0 (4035a4fb49, 2020-05-01)"
   sodipodi:docname="qr-code.svg"
   id="svg4"
   version="1.1"
   fill="#e3e3e3"
   width="24px"
   viewBox="0 -960 960 960"
   height="24px">
  <metadata
     id="metadata10">
    <rdf:RDF>
      <cc:Work
         rdf:about="">
        <dc:format>image/svg+xml</dc:format>
        <dc:type
           rdf:resource="http://purl.org/dc/dcmitype/StillImage" />
      </cc:Work>
    </rdf:RDF>
  </metadata>
  <defs
     id="defs8" />
  <sodipodi:namedview
     inkscape:current-layer="svg4"
     inkscape:window-maximized="1"
     inkscape:window-y="-8"
     inkscape:window-x="-8"
     inkscape:cy="12"
     inkscape:cx="5.1044776"
     inkscape:zoom="27.916667"
     showgrid="false"
     id="namedview6"
     inkscape:window-height="837"
     inkscape:window-width="1600"
     inkscape:pageshadow="2"
     inkscape:pageopacity="0"
     guidetolerance="10"
     gridtolerance="10"
     objecttolerance="10"
     borderopacity="1"
     bordercolor="#666666"
     pagecolor="#ffffff" />
  <path
     style="fill:#0044aa;fill-opacity:1"
     id="path2"
     d="M120-520v-320h320v320H120Zm80-80h160v-160H200v160Zm-80 480v-320h320v320H120Zm80-80h160v-160H200v160Zm320-320v-320h320v320H520Zm80-80h160v-160H600v160Zm160 480v-80h80v80h-80ZM520-360v-80h80v80h-80Zm80 80v-80h80v80h-80Zm-80 80v-80h80v80h-80Zm80 80v-80h80v80h-80Zm80-80v-80h80v80h-80Zm0-160v-80h80v80h-80Zm80 80v-80h80v80h-80Z" />
</svg>
